<svg width="32" height="32" viewBox="0 0 32 32" xmlns="http://www.w3.org/2000/svg">
  <defs>
    <!-- Teal gradient for leaves -->
    <linearGradient id="tealLeaf" x1="0%" y1="0%" x2="100%" y2="100%">
      <stop offset="0%" stop-color="#20B2AA"/>
      <stop offset="50%" stop-color="#17A2B8"/>
      <stop offset="100%" stop-color="#138496"/>
    </linearGradient>
    
    <!-- Light stone gradient -->
    <radialGradient id="stoneGradient" cx="40%" cy="30%">
      <stop offset="0%" stop-color="#FFFFFF"/>
      <stop offset="40%" stop-color="#F5F5F5"/>
      <stop offset="80%" stop-color="#E8E8E8"/>
      <stop offset="100%" stop-color="#D3D3D3"/>
    </radialGradient>
  </defs>
  
  <!-- Shadow -->
  <ellipse cx="16" cy="28" rx="11" ry="2" fill="rgba(0,0,0,0.1)"/>
  
  <!-- Rock base shape - light grey/white stone -->
  <ellipse cx="16" cy="21" rx="13" ry="7" fill="#D3D3D3"/>
  <ellipse cx="16" cy="18" rx="12" ry="8" fill="url(#stoneGradient)"/>
  
  <!-- Central teal leaf design -->
  <g transform="translate(16,16)">
    <!-- Main leaf shape -->
    <ellipse cx="0" cy="0" rx="6" ry="8" fill="url(#tealLeaf)" transform="rotate(-10)"/>
    
    <!-- Leaf center vein -->
    <line x1="0" y1="-7" x2="0" y2="7" stroke="#138496" stroke-width="0.8" transform="rotate(-10)"/>
    
    <!-- Side veins -->
    <g transform="rotate(-10)" stroke="#138496" stroke-width="0.4" opacity="0.8">
      <line x1="-2" y1="-5" x2="0" y2="-3"/>
      <line x1="2" y1="-5" x2="0" y2="-3"/>
      <line x1="-3" y1="-2" x2="0" y2="0"/>
      <line x1="3" y1="-2" x2="0" y2="0"/>
      <line x1="-3" y1="2" x2="0" y2="3"/>
      <line x1="3" y1="2" x2="0" y2="3"/>
      <line x1="-2" y1="5" x2="0" y2="6"/>
      <line x1="2" y1="5" x2="0" y2="6"/>
    </g>
  </g>
  
  <!-- Subtle natural stone texture -->
  <ellipse cx="12" cy="14" rx="2" ry="1" fill="rgba(200,200,200,0.3)"/>
  <ellipse cx="21" cy="19" rx="1.5" ry="0.8" fill="rgba(200,200,200,0.3)"/>
  <ellipse cx="9" cy="20" rx="1" ry="0.5" fill="rgba(200,200,200,0.3)"/>
  
  <!-- Subtle highlight for 3D stone effect -->
  <ellipse cx="13" cy="14" rx="3" ry="2" fill="rgba(255,255,255,0.15)"/>
</svg>