<svg width="32" height="32" viewBox="0 0 32 32" xmlns="http://www.w3.org/2000/svg">
  <defs>
    <!-- Rainbow gradient -->
    <linearGradient id="rainbow" x1="0%" y1="0%" x2="100%" y2="0%">
      <stop offset="0%" stop-color="#FF6B6B"/>
      <stop offset="16.66%" stop-color="#FF8E53"/>
      <stop offset="33.33%" stop-color="#FECA57"/>
      <stop offset="50%" stop-color="#48CAE4"/>
      <stop offset="66.66%" stop-color="#3D5A80"/>
      <stop offset="83.33%" stop-color="#6A4C93"/>
      <stop offset="100%" stop-color="#FF6B6B"/>
    </linearGradient>
    
    <!-- Nature leaf gradient -->
    <radialGradient id="leafGreen" cx="50%" cy="50%">
      <stop offset="0%" stop-color="#A8E6CF"/>
      <stop offset="100%" stop-color="#2E7D32"/>
    </radialGradient>
  </defs>
  
  <!-- Shadow -->
  <ellipse cx="16" cy="29" rx="12" ry="2.5" fill="rgba(0,0,0,0.15)"/>
  
  <!-- Rock base shape with natural texture -->
  <ellipse cx="16" cy="22" rx="14" ry="8" fill="#7D6B5A"/>
  <ellipse cx="16" cy="18" rx="12.5" ry="9" fill="#8B7958"/>
  <ellipse cx="16" cy="16" rx="11" ry="8" fill="#9C8A6B"/>
  
  <!-- Beautiful rainbow mandala pattern in center -->
  <circle cx="16" cy="16" r="7" fill="url(#rainbow)" opacity="0.9"/>
  <circle cx="16" cy="16" r="6" fill="white" opacity="0.3"/>
  <circle cx="16" cy="16" r="5" fill="url(#rainbow)" opacity="0.8"/>
  
  <!-- Mandala petals around center -->
  <g transform="translate(16,16)">
    <!-- 8 rainbow petals -->
    <ellipse cx="0" cy="-4" rx="1" ry="2" fill="#FF6B6B" transform="rotate(0)"/>
    <ellipse cx="0" cy="-4" rx="1" ry="2" fill="#FF8E53" transform="rotate(45)"/>
    <ellipse cx="0" cy="-4" rx="1" ry="2" fill="#FECA57" transform="rotate(90)"/>
    <ellipse cx="0" cy="-4" rx="1" ry="2" fill="#48CAE4" transform="rotate(135)"/>
    <ellipse cx="0" cy="-4" rx="1" ry="2" fill="#3D5A80" transform="rotate(180)"/>
    <ellipse cx="0" cy="-4" rx="1" ry="2" fill="#6A4C93" transform="rotate(225)"/>
    <ellipse cx="0" cy="-4" rx="1" ry="2" fill="#C44569" transform="rotate(270)"/>
    <ellipse cx="0" cy="-4" rx="1" ry="2" fill="#00D2D3" transform="rotate(315)"/>
  </g>
  
  <!-- Nature elements - leaves and flowers -->
  <!-- Left side leaves -->
  <ellipse cx="8" cy="12" rx="2" ry="4" fill="url(#leafGreen)" transform="rotate(-30 8 12)"/>
  <ellipse cx="6" cy="15" rx="1.5" ry="3" fill="url(#leafGreen)" transform="rotate(-45 6 15)"/>
  
  <!-- Right side flowers -->
  <g transform="translate(24,14)">
    <circle cx="0" cy="0" r="1.5" fill="#FF69B4"/>
    <circle cx="-0.8" cy="-0.8" r="0.6" fill="#FFB6C1"/>
    <circle cx="0.8" cy="-0.8" r="0.6" fill="#FFB6C1"/>
    <circle cx="-0.8" cy="0.8" r="0.6" fill="#FFB6C1"/>
    <circle cx="0.8" cy="0.8" r="0.6" fill="#FFB6C1"/>
    <circle cx="0" cy="0" r="0.4" fill="#FFD700"/>
  </g>
  
  <!-- Bottom nature pattern -->
  <g transform="translate(16,22)">
    <!-- Stem -->
    <rect x="-0.3" y="0" width="0.6" height="4" fill="#4CAF50"/>
    <!-- Small flowers -->
    <circle cx="-3" cy="1" r="0.8" fill="#E91E63"/>
    <circle cx="3" cy="1" r="0.8" fill="#9C27B0"/>
    <circle cx="-2" cy="3" r="0.6" fill="#FF5722"/>
    <circle cx="2" cy="3" r="0.6" fill="#2196F3"/>
  </g>
  
  <!-- Decorative dots around the edges -->
  <circle cx="7" cy="20" r="0.8" fill="#FF6B6B"/>
  <circle cx="25" cy="20" r="0.8" fill="#4ECDC4"/>
  <circle cx="10" cy="24" r="0.6" fill="#FECA57"/>
  <circle cx="22" cy="24" r="0.6" fill="#6A4C93"/>
  
  <!-- Sparkle effects -->
  <g fill="white" opacity="0.8">
    <polygon points="12,10 12.5,11.5 14,12 12.5,12.5 12,14 11.5,12.5 10,12 11.5,11.5" fill="white"/>
    <polygon points="20,8 20.3,9 21,9.2 20.3,9.5 20,10.5 19.7,9.5 19,9.2 19.7,9 20,8" fill="white"/>
  </g>
  
  <!-- Subtle highlight for 3D effect -->
  <ellipse cx="14" cy="14" rx="4" ry="3" fill="rgba(255,255,255,0.2)"/>
</svg>