<svg width="32" height="32" viewBox="0 0 32 32" xmlns="http://www.w3.org/2000/svg">
  <!-- Rock base shape -->
  <ellipse cx="16" cy="22" rx="14" ry="8" fill="#8B7355"/>
  <ellipse cx="16" cy="18" rx="12" ry="10" fill="#A68B5B"/>
  
  <!-- Painted patterns -->
  <!-- Colorful dots pattern -->
  <circle cx="10" cy="16" r="2" fill="#FF6B6B"/>
  <circle cx="16" cy="14" r="1.5" fill="#4ECDC4"/>
  <circle cx="22" cy="17" r="1.8" fill="#45B7D1"/>
  <circle cx="13" cy="20" r="1.3" fill="#96CEB4"/>
  <circle cx="19" cy="19" r="1.6" fill="#FFEAA7"/>
  <circle cx="8" cy="19" r="1" fill="#DDA0DD"/>
  <circle cx="24" cy="20" r="1.2" fill="#FFB6C1"/>
  
  <!-- Decorative stripes -->
  <path d="M 6 15 Q 16 12 26 15" stroke="#FF6B6B" stroke-width="1.5" fill="none" opacity="0.8"/>
  <path d="M 7 21 Q 16 18 25 21" stroke="#4ECDC4" stroke-width="1.2" fill="none" opacity="0.8"/>
  
  <!-- Small accent dots -->
  <circle cx="15" cy="17" r="0.8" fill="#FF9FF3"/>
  <circle cx="20" cy="15" r="0.6" fill="#54A0FF"/>
  <circle cx="11" cy="18" r="0.7" fill="#5F27CD"/>
  
  <!-- Highlight for 3D effect -->
  <ellipse cx="14" cy="15" rx="3" ry="2" fill="rgba(255,255,255,0.3)"/>
  
  <!-- Shadow -->
  <ellipse cx="16" cy="28" rx="10" ry="3" fill="rgba(0,0,0,0.2)"/>
</svg>